<svg width="15" height="3" viewBox="0 0 15 3" fill="none" xmlns="http://www.w3.org/2000/svg">
<path d="M3 1.5C3 1.79667 2.91203 2.08668 2.7472 2.33336C2.58238 2.58003 2.34811 2.77229 2.07403 2.88582C1.79994 2.99935 1.49834 3.02906 1.20737 2.97118C0.916394 2.9133 0.649119 2.77044 0.43934 2.56066C0.229562 2.35088 0.0867006 2.08361 0.0288227 1.79264C-0.0290551 1.50166 0.000649921 1.20006 0.114181 0.925975C0.227713 0.651886 0.419972 0.417618 0.666645 0.252796C0.913319 0.0879736 1.20333 0 1.5 0C1.89769 0.000446645 2.27896 0.158625 2.56017 0.439833C2.84138 0.721041 2.99955 1.10231 3 1.5V1.5ZM13.5 0C13.2033 0 12.9133 0.0879736 12.6666 0.252796C12.42 0.417618 12.2277 0.651886 12.1142 0.925975C12.0006 1.20006 11.9709 1.50166 12.0288 1.79264C12.0867 2.08361 12.2296 2.35088 12.4393 2.56066C12.6491 2.77044 12.9164 2.9133 13.2074 2.97118C13.4983 3.02906 13.7999 2.99935 14.074 2.88582C14.3481 2.77229 14.5824 2.58003 14.7472 2.33336C14.912 2.08668 15 1.79667 15 1.5C14.9996 1.10231 14.8414 0.721041 14.5602 0.439833C14.279 0.158625 13.8977 0.000446645 13.5 0ZM7.5 0C7.20333 0 6.91332 0.0879736 6.66664 0.252796C6.41997 0.417618 6.22771 0.651886 6.11418 0.925975C6.00065 1.20006 5.97094 1.50166 6.02882 1.79264C6.0867 2.08361 6.22956 2.35088 6.43934 2.56066C6.64912 2.77044 6.91639 2.9133 7.20736 2.97118C7.49833 3.02906 7.79994 2.99935 8.07402 2.88582C8.34811 2.77229 8.58238 2.58003 8.7472 2.33336C8.91203 2.08668 9 1.79667 9 1.5C8.99955 1.10231 8.84137 0.721041 8.56017 0.439833C8.27896 0.158625 7.89769 0.000446645 7.5 0Z" fill="#8C30F5"/>
</svg>
