<svg width="72" height="72" viewBox="0 0 72 72" fill="none" xmlns="http://www.w3.org/2000/svg">
<path d="M32.8607 0H39.1398C39.6979 0 39.977 0.266667 39.977 0.8V71.2C39.977 71.7333 39.6979 72 39.1398 72H32.8607C32.3026 72 32.0235 71.7333 32.0235 71.2V0.8C32.0235 0.266667 32.3026 0 32.8607 0Z" fill="#979797"/>
<path d="M0.837209 32.2H71.1628C71.7209 32.2 72 32.4666 72 33V39C72 39.5333 71.7209 39.8 71.1628 39.8H0.837209C0.27907 39.8 0 39.5333 0 39V33C0 32.4666 0.27907 32.2 0.837209 32.2Z" fill="#979797"/>
</svg>
