<svg width="11" height="12" viewBox="0 0 11 12" fill="none" xmlns="http://www.w3.org/2000/svg">
<path d="M4.90625 0H5.84375C5.92708 0 5.96875 0.0416667 5.96875 0.125V11.125C5.96875 11.2083 5.92708 11.25 5.84375 11.25H4.90625C4.82292 11.25 4.78125 11.2083 4.78125 11.125V0.125C4.78125 0.0416667 4.82292 0 4.90625 0Z" fill="#8C30F5"/>
<path d="M0.125 5.03125H10.625C10.7083 5.03125 10.75 5.07292 10.75 5.15625V6.09375C10.75 6.17708 10.7083 6.21875 10.625 6.21875H0.125C0.0416667 6.21875 0 6.17708 0 6.09375V5.15625C0 5.07292 0.0416667 5.03125 0.125 5.03125Z" fill="#8C30F5"/>
</svg>
