<svg width="14" height="14" viewBox="0 0 14 14" fill="none" xmlns="http://www.w3.org/2000/svg">
<path d="M14 13.2678L10.0893 9.35711C11.0291 8.22892 11.4977 6.78185 11.3977 5.31693C11.2977 3.85202 10.6368 2.48205 9.55246 1.49202C8.46811 0.501988 7.04382 -0.0318806 5.57588 0.00147384C4.10793 0.0348283 2.70936 0.632837 1.6711 1.6711C0.632837 2.70936 0.0348283 4.10793 0.00147384 5.57588C-0.0318806 7.04382 0.501988 8.46811 1.49202 9.55246C2.48205 10.6368 3.85202 11.2977 5.31693 11.3977C6.78185 11.4977 8.22892 11.0291 9.35711 10.0893L13.2678 14L14 13.2678ZM1.05418 5.71468C1.05418 4.79292 1.32752 3.89186 1.83962 3.12545C2.35172 2.35903 3.07959 1.76168 3.93118 1.40894C4.78278 1.0562 5.71985 0.963907 6.62389 1.14373C7.52794 1.32356 8.35836 1.76743 9.01014 2.41921C9.66193 3.07099 10.1058 3.90141 10.2856 4.80546C10.4654 5.70951 10.3732 6.64658 10.0204 7.49817C9.66767 8.34976 9.07032 9.07763 8.30391 9.58974C7.53749 10.1018 6.63644 10.3752 5.71468 10.3752C4.47906 10.3738 3.29444 9.88235 2.42072 9.00863C1.54701 8.13492 1.05555 6.9503 1.05418 5.71468V5.71468Z" fill="#979797"/>
</svg>
