<svg width="16" height="16" viewBox="0 0 16 16" fill="none" xmlns="http://www.w3.org/2000/svg">
<path d="M15.9241 6.09C15.9998 5.90723 16.0196 5.7061 15.981 5.51208C15.9424 5.31805 15.847 5.13984 15.7071 5L10.7071 0L9.29312 1.414L12.5861 4.707H0.000115853V6.707H15.0001C15.1979 6.70705 15.3912 6.64846 15.5557 6.53863C15.7202 6.42881 15.8484 6.27269 15.9241 6.09V6.09ZM0.0761161 9.324C0.000411265 9.50677 -0.0193799 9.7079 0.019247 9.90192C0.057874 10.0959 0.153183 10.2742 0.293116 10.414L5.29312 15.414L6.70712 14L3.41412 10.707H16.0001V8.707H1.00012C0.80232 8.70682 0.608922 8.76536 0.444428 8.8752C0.279935 8.98504 0.15175 9.14124 0.0761161 9.324V9.324Z" fill="#8C30F5"/>
</svg>
